<svg id="Layer_1" data-name="Layer 1" xmlns="http://www.w3.org/2000/svg" viewBox="0 0 643.05 86.98"><defs><style>.cls-1{fill:#1e68d8;}</style></defs><title>Artboard 1</title><path class="cls-1" d="M0,76.49c.18,8.1,8.27,13,15.36,9.15l57-33.17a10.39,10.39,0,0,0,0-18l-57-33.11C8.27-2.51.18,2.35,0,10.45Z"/><path d="M141,71.83,128.9,50.69h-3.09V71.83H112.27v-56h23.12a25,25,0,0,1,11.25,2.3,15.88,15.88,0,0,1,6.89,6.29,18.07,18.07,0,0,1,2.29,9.15A16.27,16.27,0,0,1,152.46,44a17.24,17.24,0,0,1-9.78,5.86l13.3,22Zm-15.21-30.4h8.4q4,0,5.94-1.79a6.88,6.88,0,0,0,1.9-5.26,7,7,0,0,0-1.94-5.23c-1.3-1.26-3.26-1.9-5.9-1.9h-8.4Z"/><path d="M204.21,52.2H173.56q.24,5,2.53,7.16A8.21,8.21,0,0,0,182,61.54a8,8,0,0,0,5-1.5,7.11,7.11,0,0,0,2.62-3.88h14.33a18.74,18.74,0,0,1-3.8,8.35,20.39,20.39,0,0,1-7.45,5.78,25.4,25.4,0,0,1-21.57-.63,19.48,19.48,0,0,1-7.88-7.88,24.47,24.47,0,0,1-2.85-12,24.58,24.58,0,0,1,2.81-12.07A19.2,19.2,0,0,1,171,29.83a25.93,25.93,0,0,1,23.12,0,18.93,18.93,0,0,1,7.72,7.56,22.5,22.5,0,0,1,2.73,11.2A19,19,0,0,1,204.21,52.2ZM188.57,40a8.62,8.62,0,0,0-6-2.18A8.88,8.88,0,0,0,176.41,40a9.26,9.26,0,0,0-2.77,6.49H190.9C191,43.59,190.18,41.41,188.57,40Z"/><path d="M237.15,29.39a13.84,13.84,0,0,1,5.38,6.26v-8H256V71.83H242.53v-8a13.82,13.82,0,0,1-5.38,6.25,16,16,0,0,1-8.71,2.3,17.87,17.87,0,0,1-9.78-2.73,18.65,18.65,0,0,1-6.81-7.88,27.23,27.23,0,0,1-2.5-12,27.12,27.12,0,0,1,2.5-12.07,18.66,18.66,0,0,1,6.81-7.84,17.8,17.8,0,0,1,9.78-2.74A16,16,0,0,1,237.15,29.39ZM225.78,41.82q-2.66,2.85-2.65,7.92t2.65,7.92a9.95,9.95,0,0,0,14-.08,11,11,0,0,0,2.73-7.84,11,11,0,0,0-2.73-7.88,9.24,9.24,0,0,0-7-2.89A9.13,9.13,0,0,0,225.78,41.82Z"/><path d="M299.62,31.81a20.83,20.83,0,0,1,7.29,12.94H292.58A7.61,7.61,0,0,0,290,40.32a7.71,7.71,0,0,0-5-1.59,7.25,7.25,0,0,0-5.86,2.82q-2.3,2.81-2.29,8.19t2.29,8.2A7.27,7.27,0,0,0,285,60.75a7.71,7.71,0,0,0,5-1.59,7.58,7.58,0,0,0,2.62-4.43h14.33a20.86,20.86,0,0,1-7.29,13,21.94,21.94,0,0,1-14.33,4.71,23.74,23.74,0,0,1-11.52-2.73,19.54,19.54,0,0,1-7.88-7.88,24.47,24.47,0,0,1-2.85-12,24.69,24.69,0,0,1,2.81-12.07,19.2,19.2,0,0,1,7.88-7.84,23.88,23.88,0,0,1,11.56-2.74A21.94,21.94,0,0,1,299.62,31.81Z"/><path d="M339,60.19V71.83h-6.1q-7.75,0-12.07-3.84t-4.32-12.71V39.05h-5.94V27.65h5.94V16.8H330V27.65h8.87v11.4H330V55.52c0,1.74.36,3,1.07,3.64a5.08,5.08,0,0,0,3.6,1Z"/><path d="M425.37,16.25V71.83H411.83V37.07l-12,34.76H388.07L376,37V71.83H362.42V16.25H379L394.09,55,408.9,16.25Z"/><path d="M467.14,29.83a20,20,0,0,1,8.16,7.87,23.7,23.7,0,0,1,3,12,23.68,23.68,0,0,1-3,12,20,20,0,0,1-8.16,7.88,26.78,26.78,0,0,1-23.56,0,20,20,0,0,1-8.19-7.88,23.68,23.68,0,0,1-3-12,23.7,23.7,0,0,1,3-12,20,20,0,0,1,8.19-7.87,26.69,26.69,0,0,1,23.56,0ZM448.85,41.62c-1.77,1.88-2.65,4.58-2.65,8.12s.88,6.23,2.65,8.08a8.67,8.67,0,0,0,6.53,2.77,8.54,8.54,0,0,0,6.49-2.77q2.63-2.77,2.62-8.08c0-3.54-.87-6.24-2.62-8.12a8.5,8.5,0,0,0-6.49-2.81A8.63,8.63,0,0,0,448.85,41.62Z"/><path d="M505.74,58.61l9.58-31h14.42L514.06,71.83H497.27L481.59,27.65H496Z"/><path d="M536.31,10.11a9.51,9.51,0,0,1,11.72,0,6.63,6.63,0,0,1,2.21,5.11,6.53,6.53,0,0,1-2.21,5,9.51,9.51,0,0,1-11.72,0,6.5,6.5,0,0,1-2.22-5A6.6,6.6,0,0,1,536.31,10.11ZM548.9,27.65V71.83H535.36V27.65Z"/><path d="M599.81,52.2H569.17q.24,5,2.53,7.16a8.19,8.19,0,0,0,5.86,2.18,8,8,0,0,0,5-1.5,7,7,0,0,0,2.61-3.88H599.5a18.74,18.74,0,0,1-3.8,8.35,20.39,20.39,0,0,1-7.45,5.78,25.4,25.4,0,0,1-21.57-.63,19.48,19.48,0,0,1-7.88-7.88,24.47,24.47,0,0,1-2.85-12,24.58,24.58,0,0,1,2.81-12.07,19.2,19.2,0,0,1,7.88-7.84,25.93,25.93,0,0,1,23.12,0,19,19,0,0,1,7.72,7.56,22.5,22.5,0,0,1,2.73,11.2A18.31,18.31,0,0,1,599.81,52.2ZM584.17,40a8.6,8.6,0,0,0-6-2.18A8.86,8.86,0,0,0,572,40a9.26,9.26,0,0,0-2.77,6.49h17.26C586.56,43.59,585.79,41.41,584.17,40Z"/><path d="M636.75,31.29a18.27,18.27,0,0,1,6.3,11.09H630.38a7,7,0,0,0-2.5-4.24A7.55,7.55,0,0,0,623,36.6a5.31,5.31,0,0,0-3.48,1,3.45,3.45,0,0,0-1.19,2.81,3.31,3.31,0,0,0,2.18,3.09,34.69,34.69,0,0,0,6.85,2A68.66,68.66,0,0,1,635.68,48a13.74,13.74,0,0,1,5.63,4,11.07,11.07,0,0,1,2.37,7.44,11.34,11.34,0,0,1-2.06,6.73,13.5,13.5,0,0,1-5.94,4.6,23.33,23.33,0,0,1-9.18,1.66q-9,0-14.33-4a16.74,16.74,0,0,1-6.58-11.32h13.07a5.88,5.88,0,0,0,2.41,4.35A9.13,9.13,0,0,0,626.5,63,5.05,5.05,0,0,0,630,61.9a3.62,3.62,0,0,0,1.19-2.81A3.39,3.39,0,0,0,629,55.8a40,40,0,0,0-7.08-2.1,55.79,55.79,0,0,1-8.08-2.22,13.29,13.29,0,0,1-5.46-3.84,10.63,10.63,0,0,1-2.3-7.24,11.81,11.81,0,0,1,4.51-9.62q4.51-3.69,12.75-3.69Q631.73,27.09,636.75,31.29Z"/></svg>